<?xml version="1.0" standalone="no"?>
<!DOCTYPE svg PUBLIC "-//W3C//DTD SVG 1.1//EN" "http://www.w3.org/Graphics/SVG/1.1/DTD/svg11.dtd">
<svg version="1.1" xmlns="http://www.w3.org/2000/svg" viewBox="0 0 139.30635943492643 130.5511120314792" width="139.30635943492643" height="130.5511120314792"><!-- svg-source:excalidraw --><metadata></metadata><defs><style class="style-fonts">
      </style></defs><g stroke-linecap="round" transform="translate(10 12.382890164935134) rotate(0 48.59119341661176 54.08411093327203)"><path d="M61.25 13.75 C66.8 22.43, 75.97 24.64, 84.93 41.25 C94.93 56.74, 95.94 53.1, 84.93 68.75 C78.74 78.74, 68.04 84.26, 61.25 94.42 C46.67 110.98, 49.32 108.65, 36.75 94.42 C30.7 90.26, 28.56 86.43, 12.25 68.75 C-1.59 56.6, -2.74 54.91, 12.25 41.25 C19.98 37.34, 18.94 26.33, 36.75 13.75 C45.72 3.6, 49.44 -2.29, 61.25 13.75" stroke="none" stroke-width="0" fill="#ffec99"></path><path d="M61.25 13.75 C65.05 17.85, 73.22 23.45, 84.93 41.25 M61.25 13.75 C67.72 20.29, 73.36 28.25, 84.93 41.25 M84.93 41.25 C98.78 56.32, 96.41 53.57, 84.93 68.75 M84.93 41.25 C94.94 57.05, 97.67 56.09, 84.93 68.75 M84.93 68.75 C77.32 76.82, 73.7 83.39, 61.25 94.42 M84.93 68.75 C76.61 79.19, 67.89 87.74, 61.25 94.42 M61.25 94.42 C50.03 108.06, 48.21 107.59, 36.75 94.42 M61.25 94.42 C47.18 110.08, 47.69 106.45, 36.75 94.42 M36.75 94.42 C28.73 87.85, 23.65 80.34, 12.25 68.75 M36.75 94.42 C28.09 85.98, 19.36 75.8, 12.25 68.75 M12.25 68.75 C-0.56 54.87, 0.56 55.51, 12.25 41.25 M12.25 68.75 C0.49 56.52, 1.6 55.94, 12.25 41.25 M12.25 41.25 C19.57 34.66, 26.4 24.89, 36.75 13.75 M12.25 41.25 C20.12 33.73, 26.45 26.03, 36.75 13.75 M36.75 13.75 C50.42 1.83, 48.62 -1.76, 61.25 13.75 M36.75 13.75 C50.78 -1.66, 46.77 -1.58, 61.25 13.75" stroke="#1e1e1e" stroke-width="2" fill="none"></path></g><g stroke-linecap="round" transform="translate(32.12397260170292 10) rotate(0 48.59119341661176 54.08411093327203)"><path d="M61.25 13.75 C70.88 23.5, 75.62 36.24, 84.93 41.25 C97.46 58.42, 97.56 52.28, 84.93 68.75 C79.36 81.61, 67.7 88.06, 61.25 94.42 C52.17 107.17, 49.56 106.07, 36.75 94.42 C30.03 88.89, 23.9 82, 12.25 68.75 C0.32 55.63, 3.58 55.97, 12.25 41.25 C19.82 30.18, 24.6 21.62, 36.75 13.75 C47.64 1.83, 48.52 -1.86, 61.25 13.75" stroke="none" stroke-width="0" fill="#b2f2bb"></path><path d="M61.25 13.75 C68.76 19.93, 73.2 28.36, 84.93 41.25 M61.25 13.75 C68.69 22.31, 77.22 31.7, 84.93 41.25 M84.93 41.25 C98.01 54.45, 98.91 53.23, 84.93 68.75 M84.93 41.25 C98.06 54.22, 99.07 52.77, 84.93 68.75 M84.93 68.75 C76.95 77.82, 68.84 82.94, 61.25 94.42 M84.93 68.75 C79.75 73.97, 74.75 79.09, 61.25 94.42 M61.25 94.42 C48.29 106.49, 49.15 108.15, 36.75 94.42 M61.25 94.42 C47.77 108.53, 47.91 108.98, 36.75 94.42 M36.75 94.42 C29.63 87.06, 20.17 79.08, 12.25 68.75 M36.75 94.42 C30.64 87.1, 23.84 81.22, 12.25 68.75 M12.25 68.75 C0.44 55.96, -1.85 54.04, 12.25 41.25 M12.25 68.75 C0.06 52.98, 1.83 53.51, 12.25 41.25 M12.25 41.25 C21.98 28.46, 33.38 17.87, 36.75 13.75 M12.25 41.25 C19.98 32.19, 27.8 23.14, 36.75 13.75 M36.75 13.75 C47.57 1.34, 49.6 0.32, 61.25 13.75 M36.75 13.75 C50.17 -1.68, 50.85 1.82, 61.25 13.75" stroke="#1e1e1e" stroke-width="2" fill="none"></path></g></svg>